# Blender v3.0.0 OBJ File: 'screen_1.blend'
# www.blender.org
mtllib screen_1.mtl
o Cube
v 0.345926 0.008334 -2.700000
v 0.045926 0.408334 -3.000000
v 0.045926 0.408334 0.000000
v -0.003704 1.408334 -1.000000
v 1.095556 2.408334 -1.000000
v -0.003704 2.408334 -1.980222
v 1.095556 2.408334 -1.980222
v 0.996296 0.408334 -0.980222
v 2.095556 0.408334 -0.980222
v 2.745926 0.008334 0.000000
v 0.345926 0.008334 0.000000
v 2.745926 0.008334 -2.700000
v 2.095556 0.408334 0.000000
v 0.996296 0.408334 0.000000
v 3.045926 0.408334 -3.000000
v 3.045926 0.408334 0.000000
v 1.095556 1.408334 -1.000000
v -0.003704 1.408334 -1.980222
v 1.095556 1.408334 -1.980222
v -0.003704 2.408334 -1.000000
v 1.996296 4.308333 -0.980222
v 1.996296 4.308333 0.000000
v 0.996296 3.408334 0.000000
v 0.996296 3.408334 -0.980222
v 2.495556 2.144173 0.000000
v 2.495556 5.672494 0.000000
v 2.295556 5.672494 0.000000
v 2.495556 1.763156 0.000000
v 2.495556 6.053511 -3.573084
v 2.295556 2.144173 0.000000
v 2.495556 1.763156 -3.573084
v 2.295556 2.144173 -3.192067
v 2.295556 5.672494 -3.192067
v 2.495556 5.672494 -3.192067
v 2.495556 2.144173 -3.192067
v 2.495556 6.053511 0.000000
v 2.095556 4.408334 0.000000
v 2.095556 3.408334 0.000000
v 2.095556 3.408334 -0.980222
v 2.225822 5.798334 -3.341883
v 2.225822 5.798334 0.000000
v 2.225822 2.018333 -3.341883
v 2.225822 2.018333 0.000000
v 2.095556 4.408334 -0.980222
v 9.105927 0.008334 0.000000
v 9.105927 0.008334 -9.854999
v -6.014075 0.008334 -9.854999
v -6.014075 0.008334 0.000000
v -2.811195 -1.023831 -5.734118
v -2.811195 -1.023831 -4.120881
v 5.902005 -1.023831 -5.733079
v 5.902005 -1.023831 -4.121919
v 4.749844 -1.023831 -5.733079
v 4.749844 -1.023831 -4.121919
v -1.656958 -1.023831 -5.734118
v 9.105925 -1.023831 -9.854999
v 9.105925 -1.023831 0.000000
v -6.014076 -1.023831 -9.854999
v 1.545924 -1.023831 -9.854999
v -6.014076 -1.023831 0.000000
v 1.545924 -1.023831 0.000000
v -1.656958 -1.023831 -4.120881
v 4.749844 -10.104243 -5.733079
v 5.902005 -10.104243 -5.733079
v 4.749844 -10.104243 -4.121919
v 5.902005 -10.104243 -4.121919
v -2.811195 -9.991666 -5.734118
v -1.656957 -9.991666 -5.734118
v -2.811195 -9.991666 -4.120881
v -1.656957 -9.991666 -4.120881
v 0.345926 0.008334 2.700000
v 0.045926 0.408334 3.000000
v -0.003704 1.408334 1.000000
v 1.095556 2.408334 1.000000
v -0.003704 2.408334 1.980222
v 1.095556 2.408334 1.980222
v 0.996296 0.408334 0.980222
v 2.095556 0.408334 0.980222
v 2.745926 0.008334 2.700000
v 3.045926 0.408334 3.000000
v 1.095556 1.408334 1.000000
v -0.003704 1.408334 1.980222
v 1.095556 1.408334 1.980222
v -0.003704 2.408334 1.000000
v 1.996296 4.308333 0.980222
v 0.996296 3.408334 0.980222
v 2.495556 6.053511 3.573084
v 2.495556 1.763156 3.573084
v 2.295556 2.144173 3.192067
v 2.295556 5.672494 3.192067
v 2.495556 5.672494 3.192067
v 2.495556 2.144173 3.192067
v 2.095556 3.408334 0.980222
v 2.225822 5.798334 3.341883
v 2.225822 2.018333 3.341883
v 2.095556 4.408334 0.980222
v 9.105927 0.008334 9.854999
v -6.014075 0.008334 9.854999
v -2.811195 -1.023831 5.734118
v -2.811195 -1.023831 4.120881
v 5.902005 -1.023831 5.733079
v 5.902005 -1.023831 4.121919
v 4.749844 -1.023831 5.733079
v 4.749844 -1.023831 4.121919
v -1.656958 -1.023831 5.734118
v 9.105925 -1.023831 9.854999
v -6.014076 -1.023831 9.854999
v 1.545924 -1.023831 9.854999
v -1.656958 -1.023831 4.120881
v 4.749844 -10.104243 5.733079
v 5.902005 -10.104243 5.733079
v 4.749844 -10.104243 4.121919
v 5.902005 -10.104243 4.121919
v -2.811195 -9.991666 5.734118
v -1.656957 -9.991666 5.734118
v -2.811195 -9.991666 4.120881
v -1.656957 -9.991666 4.120881
vt 0.600000 0.400000
vt 0.600000 0.400000
vt 0.625000 0.500000
vt 0.625000 0.500000
vt 0.000000 0.000000
vt 0.000000 0.000000
vt 0.000000 0.000000
vt 0.000000 0.000000
vt 0.400000 0.400000
vt 0.375000 0.500000
vt 0.000000 0.000000
vt 0.000000 0.000000
vt 0.400000 0.400000
vt 0.375000 0.500000
vt 0.431296 0.500000
vt 0.568704 0.500000
vt 0.000000 0.000000
vt 0.568704 0.500000
vt 0.568704 0.500000
vt 0.431296 0.500000
vt 0.431296 0.500000
vt 0.431296 0.500000
vt 0.000000 0.000000
vt 0.000000 0.000000
vt 0.000000 0.000000
vt 0.000000 0.000000
vt 0.000000 0.000000
vt 0.568704 0.500000
vt 0.568704 0.500000
vt 0.431296 0.500000
vt 0.431296 0.500000
vt 0.431296 0.500000
vt 0.000000 0.000000
vt 0.000000 0.000000
vt 0.385305 0.446682
vt 0.385305 0.446682
vt 0.000000 0.000000
vt 0.385305 0.446682
vt 0.000000 0.000000
vt 0.000000 0.000000
vt 0.385305 0.446682
vt 0.431296 0.500000
vt 0.000000 0.000000
vt 0.000000 0.000000
vt 0.431296 0.500000
vt 0.000000 0.000000
vt 0.400000 0.400000
vt 0.400000 0.400000
vt 0.600000 0.400000
vt 0.600000 0.400000
vt 0.400000 0.400000
vt 0.500000 0.400000
vt 0.600000 0.400000
vt 0.600000 0.400000
vt 0.400000 0.400000
vt 0.500000 0.400000
vt 0.411899 0.400000
vt 0.488101 0.400000
vt 0.488101 0.400000
vt 0.411899 0.400000
vt 0.511831 0.400000
vt 0.588169 0.400000
vt 0.588169 0.400000
vt 0.511831 0.400000
vt 0.588169 0.400000
vt 0.511831 0.400000
vt 0.488101 0.400000
vt 0.411899 0.400000
vt 0.588169 0.400000
vt 0.511831 0.400000
vt 0.488101 0.400000
vt 0.411899 0.400000
vt 0.000000 0.000000
vt 0.000000 0.000000
vt 0.000000 0.000000
vt 0.000000 0.000000
vt 0.600000 0.400000
vt 0.625000 0.500000
vt 0.000000 0.000000
vt 0.000000 0.000000
vt 0.400000 0.400000
vt 0.375000 0.500000
vt 0.431296 0.500000
vt 0.568704 0.500000
vt 0.568704 0.500000
vt 0.568704 0.500000
vt 0.000000 0.000000
vt 0.431296 0.500000
vt 0.431296 0.500000
vt 0.000000 0.000000
vt 0.431296 0.500000
vt 0.568704 0.500000
vt 0.568704 0.500000
vt 0.431296 0.500000
vt 0.431296 0.500000
vt 0.431296 0.500000
vt 0.385305 0.446682
vt 0.385305 0.446682
vt 0.385305 0.446682
vt 0.431296 0.500000
vt 0.385305 0.446682
vt 0.431296 0.500000
vt 0.600000 0.400000
vt 0.400000 0.400000
vt 0.600000 0.400000
vt 0.500000 0.400000
vt 0.400000 0.400000
vt 0.411899 0.400000
vt 0.488101 0.400000
vt 0.488101 0.400000
vt 0.411899 0.400000
vt 0.511831 0.400000
vt 0.588169 0.400000
vt 0.588169 0.400000
vt 0.511831 0.400000
vt 0.511831 0.400000
vt 0.588169 0.400000
vt 0.411899 0.400000
vt 0.488101 0.400000
vt 0.511831 0.400000
vt 0.588169 0.400000
vt 0.411899 0.400000
vt 0.488101 0.400000
vt 0.000000 0.000000
vt 0.000000 0.000000
vn -0.8000 -0.6000 0.0000
vn 0.0000 0.7071 0.7071
vn -0.0000 -0.6000 -0.8000
vn 0.0000 0.0000 1.0000
vn 0.8000 -0.6000 0.0000
vn 0.0000 1.0000 -0.0000
vn -1.0000 0.0000 0.0000
vn 0.7071 0.7071 0.0000
vn 0.7071 -0.7071 0.0000
vn 1.0000 -0.0000 0.0000
vn 0.0000 -0.0000 -1.0000
vn 0.0000 0.7071 -0.7071
vn -0.7071 0.7071 0.0000
vn 0.0000 -0.7071 0.7071
vn -0.0000 -0.7071 -0.7071
vn -0.7071 -0.7071 0.0000
vn -0.6690 0.7433 0.0000
vn -0.7097 0.7045 0.0000
vn -0.9985 0.0000 -0.0551
vn -0.9956 -0.0933 0.0000
vn 0.0000 -1.0000 0.0000
vn -0.9956 0.0933 0.0000
vn -0.6872 0.7264 0.0000
vn -0.6508 0.0000 -0.7593
vn -0.6872 -0.7264 0.0000
vn -0.0000 -0.6000 0.8000
vn -0.9985 0.0000 0.0551
vn -0.6508 0.0000 0.7593
usemtl Material
s off
f 1/1/1 11/2/1 3/3/1 2/4/1
f 17/5/2 4/6/2 14/7/2 13/8/2
f 12/9/3 1/1/3 2/4/3 15/10/3
f 14/7/4 3/11/4 16/12/4 13/8/4
f 10/13/4 16/14/4 3/3/4 11/2/4
f 16/14/5 10/13/5 12/9/5 15/10/5
f 9/15/6 15/10/6 2/4/6 8/16/6
f 8/16/6 2/4/6 3/3/6 14/7/6
f 13/8/6 16/14/6 15/10/6 9/15/6
f 4/6/7 20/17/7 6/18/7 18/19/7
f 19/20/8 17/5/8 13/8/8 9/15/8
f 7/21/9 39/22/9 38/23/9 5/24/9
f 17/5/4 5/24/4 20/17/4 4/6/4
f 19/20/10 7/21/10 5/24/10 17/5/10
f 18/19/11 6/18/11 7/21/11 19/20/11
f 23/25/4 38/23/4 37/26/4 22/27/4
f 6/18/12 24/28/12 39/22/12 7/21/12
f 20/17/13 23/25/13 24/28/13 6/18/13
f 5/24/14 38/23/14 23/25/14 20/17/14
f 18/19/15 19/20/15 9/15/15 8/16/15
f 4/6/16 18/19/16 8/16/16 14/7/16
f 24/28/17 23/25/17 22/27/17 21/29/17
f 39/22/11 24/28/11 21/29/11 44/30/11
f 21/29/18 22/27/18 37/26/18 44/30/18
f 44/30/19 40/31/19 42/32/19 39/22/19
f 39/22/20 42/32/20 43/33/20 38/23/20
f 25/34/6 35/35/6 32/36/6 30/37/6
f 30/37/10 32/36/10 33/38/10 27/39/10
f 26/40/10 34/41/10 29/42/10 36/43/10
f 35/35/10 25/34/10 28/44/10 31/45/10
f 34/41/21 26/40/21 27/39/21 33/38/21
f 35/35/4 34/41/4 33/38/4 32/36/4
f 34/41/10 35/35/10 31/45/10 29/42/10
f 37/26/22 41/46/22 40/31/22 44/30/22
f 36/43/23 29/42/23 40/31/23 41/46/23
f 29/42/24 31/45/24 42/32/24 40/31/24
f 31/45/25 28/44/25 43/33/25 42/32/25
f 12/9/6 10/13/6 45/47/6 46/48/6 47/49/6 48/50/6 11/2/6 1/1/6
f 47/49/11 46/48/11 56/51/11 59/52/11 58/53/11
f 48/50/7 47/49/7 58/53/7 60/54/7
f 46/48/10 45/47/10 57/55/10 56/51/10
f 60/54/4 61/56/4 57/55/4 45/47/4 48/50/4
f 51/57/21 53/58/21 59/52/21 56/51/21
f 54/59/21 52/60/21 57/55/21 61/56/21
f 52/60/21 51/57/21 56/51/21 57/55/21
f 53/58/21 54/59/21 61/56/21 59/52/21
f 55/61/21 49/62/21 58/53/21 59/52/21
f 49/62/21 50/63/21 60/54/21 58/53/21
f 50/63/21 62/64/21 61/56/21 60/54/21
f 62/64/21 55/61/21 59/52/21 61/56/21
f 62/64/4 50/63/4 69/65/4 70/66/4
f 52/60/4 54/59/4 65/67/4 66/68/4
f 70/66/21 69/65/21 67/69/21 68/70/21
f 66/68/21 65/67/21 63/71/21 64/72/21
f 49/62/11 55/61/11 68/70/11 67/69/11
f 51/57/10 52/60/10 66/68/10 64/72/10
f 53/58/11 51/57/11 64/72/11 63/71/11
f 55/61/10 62/64/10 70/66/10 68/70/10
f 50/63/7 49/62/7 67/69/7 69/65/7
f 54/59/7 53/58/7 63/71/7 65/67/7
f 1/73/21 12/74/21 10/75/21 11/76/21
f 71/77/1 72/78/1 3/3/1 11/2/1
f 81/79/12 13/8/12 14/7/12 73/80/12
f 79/81/26 80/82/26 72/78/26 71/77/26
f 16/14/5 80/82/5 79/81/5 10/13/5
f 78/83/6 77/84/6 72/78/6 80/82/6
f 77/84/6 14/7/6 3/3/6 72/78/6
f 13/8/6 78/83/6 80/82/6 16/14/6
f 73/80/7 82/85/7 75/86/7 84/87/7
f 83/88/8 78/83/8 13/8/8 81/79/8
f 76/89/9 74/90/9 38/23/9 93/91/9
f 81/79/11 73/80/11 84/87/11 74/90/11
f 83/88/10 81/79/10 74/90/10 76/89/10
f 82/85/4 83/88/4 76/89/4 75/86/4
f 75/86/2 76/89/2 93/91/2 86/92/2
f 84/87/13 75/86/13 86/92/13 23/25/13
f 74/90/15 84/87/15 23/25/15 38/23/15
f 82/85/14 77/84/14 78/83/14 83/88/14
f 73/80/16 14/7/16 77/84/16 82/85/16
f 86/92/17 85/93/17 22/27/17 23/25/17
f 93/91/4 96/94/4 85/93/4 86/92/4
f 85/93/18 96/94/18 37/26/18 22/27/18
f 96/94/27 93/91/27 95/95/27 94/96/27
f 93/91/20 38/23/20 43/33/20 95/95/20
f 25/34/6 30/37/6 89/97/6 92/98/6
f 30/37/10 27/39/10 90/99/10 89/97/10
f 26/40/10 36/43/10 87/100/10 91/101/10
f 92/98/10 88/102/10 28/44/10 25/34/10
f 91/101/21 90/99/21 27/39/21 26/40/21
f 92/98/11 89/97/11 90/99/11 91/101/11
f 91/101/10 87/100/10 88/102/10 92/98/10
f 37/26/22 96/94/22 94/96/22 41/46/22
f 36/43/23 41/46/23 94/96/23 87/100/23
f 87/100/28 94/96/28 95/95/28 88/102/28
f 88/102/25 95/95/25 43/33/25 28/44/25
f 79/81/6 71/77/6 11/2/6 48/50/6 98/103/6 97/104/6 45/47/6 10/13/6
f 98/103/4 107/105/4 108/106/4 106/107/4 97/104/4
f 48/50/7 60/54/7 107/105/7 98/103/7
f 97/104/10 106/107/10 57/55/10 45/47/10
f 101/108/21 106/107/21 108/106/21 103/109/21
f 104/110/21 61/56/21 57/55/21 102/111/21
f 102/111/21 57/55/21 106/107/21 101/108/21
f 103/109/21 108/106/21 61/56/21 104/110/21
f 105/112/21 108/106/21 107/105/21 99/113/21
f 99/113/21 107/105/21 60/54/21 100/114/21
f 100/114/21 60/54/21 61/56/21 109/115/21
f 109/115/21 61/56/21 108/106/21 105/112/21
f 109/115/11 117/116/11 116/117/11 100/114/11
f 102/111/11 113/118/11 112/119/11 104/110/11
f 117/116/21 115/120/21 114/121/21 116/117/21
f 113/118/21 111/122/21 110/123/21 112/119/21
f 99/113/4 114/121/4 115/120/4 105/112/4
f 101/108/10 111/122/10 113/118/10 102/111/10
f 103/109/4 110/123/4 111/122/4 101/108/4
f 105/112/10 115/120/10 117/116/10 109/115/10
f 100/114/7 116/117/7 114/121/7 99/113/7
f 104/110/7 112/119/7 110/123/7 103/109/7
f 71/124/21 11/76/21 10/75/21 79/125/21
